<svg xmlns="http://www.w3.org/2000/svg" viewBox="0 0 866 200.49"><defs><style>.cls-1{fill:#475100;}.cls-2{fill:#897215;}.cls-3{fill:#c97b14;}.cls-4{fill:#d8932e;}</style></defs><title>SheetSway Final Logo rgb</title><g id="_1" data-name="1"><path class="cls-1" d="M181.26,594.26a8.41,8.41,0,0,1,11.38-.67q17.55,14.31,36.55,14.31,10.41,0,15.55-3.55a11.15,11.15,0,0,0,5.14-9.66,11.79,11.79,0,0,0-2.27-7.22q-2.27-3.06-8.69-6.12a136.89,136.89,0,0,0-18.78-6.73q-20.68-6.12-35.31-18.17-12.32-10.16-14.26-28.27H107v30.41a13.83,13.83,0,0,0,13.83,13.83h24.52v18.8a25.44,25.44,0,0,0,16.08,23.65Z" transform="translate(-107 -439.75)"/></g><g id="_2" data-name="2"><path class="cls-2" d="M289.91,528.23v-.05H216.59l.31.3a24.6,24.6,0,0,0,7.28,4.41q4.65,2,14.32,5.26c.48.16,1,.35,1.52.55s1.17.43,1.9.67q17.39,6.12,28.76,13.1a52.38,52.38,0,0,1,17.62,17.07c.58.93,1.11,1.9,1.61,2.88h0Z" transform="translate(-107 -439.75)"/></g><g id="_3" data-name="3"><path class="cls-2" d="M170.21,521.14a52.17,52.17,0,0,1,6.18-25.09,41.93,41.93,0,0,1,9.8-12.06H107v44.19h63.57A66.44,66.44,0,0,1,170.21,521.14Z" transform="translate(-107 -439.75)"/></g><g id="_4" data-name="4"><path class="cls-3" d="M250.79,514.84a49.38,49.38,0,0,0-19.88-4.35q-8.08,0-12.36,3.31a10.68,10.68,0,0,0-4.29,8.93,7.51,7.51,0,0,0,2.33,5.45h73.32V503.55a19.5,19.5,0,0,0-.64-5L267.38,525.3A58.52,58.52,0,0,0,250.79,514.84Z" transform="translate(-107 -439.75)"/></g><g id="_5" data-name="5"><path class="cls-3" d="M169.57,439.75H132.44A25.44,25.44,0,0,0,107,465.2V484h62.57Z" transform="translate(-107 -439.75)"/></g><g id="_6" data-name="6"><path class="cls-4" d="M195.79,477.51q13.22-7,33.28-7a99.62,99.62,0,0,1,21.34,2.19V465.2A25.44,25.44,0,0,0,225,439.75H169.57V484h16.62A53.2,53.2,0,0,1,195.79,477.51Z" transform="translate(-107 -439.75)"/></g><g id="h"><path class="cls-1" d="M369.28,543.77a26.23,26.23,0,0,1,10.33,11.13,37.71,37.71,0,0,1,3.7,17.21v36.48a6.87,6.87,0,0,1-6.87,6.87H359.71V576.37q0-7.05-3.49-11a11.81,11.81,0,0,0-9.28-3.94,15.36,15.36,0,0,0-7.58,1.92,14.6,14.6,0,0,0-5.44,5.13,12.63,12.63,0,0,0-2,6.77v33.34a6.87,6.87,0,0,1-6.88,6.87H308.47V517.62a6.87,6.87,0,0,1,6.87-6.87h16.59v37.62a35.55,35.55,0,0,1,10.5-6.14,32.55,32.55,0,0,1,11.56-2.3A30,30,0,0,1,369.28,543.77Z" transform="translate(-107 -439.75)"/></g><g id="e_2" data-name="e 2"><path class="cls-1" d="M497.52,586.07a16.54,16.54,0,0,0,6.52,8.62,18.65,18.65,0,0,0,10.58,3,21.34,21.34,0,0,0,8.06-1.43,23.62,23.62,0,0,0,6.6-4.08L540,607.71a37.73,37.73,0,0,1-12,7.23,42.18,42.18,0,0,1-14.9,2.55,38.54,38.54,0,0,1-20-5.24,37.51,37.51,0,0,1-13.86-14.1,38.58,38.58,0,0,1-5-19.27A40.92,40.92,0,0,1,479,559.34a36.54,36.54,0,0,1,13.16-14.18,35.24,35.24,0,0,1,19-5.23q11.66,0,20,4.85a31.67,31.67,0,0,1,12.7,13.51,43.83,43.83,0,0,1,4.33,19.89,51.31,51.31,0,0,1-.63,7.89Zm5.83-25.4a18.26,18.26,0,0,0-6.25,10.11h26.21a4.89,4.89,0,0,0,3.86-7.91,14.7,14.7,0,0,0-2.22-2.24,16.29,16.29,0,0,0-10.64-3.47A17.29,17.29,0,0,0,503.35,560.67Z" transform="translate(-107 -439.75)"/></g><g id="e_1" data-name="e 1"><path class="cls-1" d="M416.26,586.07a16.51,16.51,0,0,0,6.53,8.62,18.6,18.6,0,0,0,10.57,3,21.39,21.39,0,0,0,8.07-1.43,23.57,23.57,0,0,0,6.59-4.08l10.75,15.49a37.73,37.73,0,0,1-12,7.23,42.15,42.15,0,0,1-14.9,2.55,38.54,38.54,0,0,1-20-5.24A37.51,37.51,0,0,1,398,598.15a38.69,38.69,0,0,1-5-19.27,40.92,40.92,0,0,1,4.75-19.54,36.54,36.54,0,0,1,13.16-14.18,35.26,35.26,0,0,1,19-5.23q11.65,0,20,4.85a31.67,31.67,0,0,1,12.7,13.51A43.83,43.83,0,0,1,467,578.18a51.31,51.31,0,0,1-.63,7.89Zm5.84-25.4a18.21,18.21,0,0,0-6.26,10.11h26.21a4.89,4.89,0,0,0,3.86-7.91,14.7,14.7,0,0,0-2.22-2.24,16.27,16.27,0,0,0-10.64-3.47A17.26,17.26,0,0,0,422.1,560.67Z" transform="translate(-107 -439.75)"/></g><g id="t"><path class="cls-1" d="M581,615.46H561.81V563h-8.93V541.46h8.86V528.21a5,5,0,0,1,3.81-4.86l19.93-4.92v23h14.31V563H585.41v48A4.39,4.39,0,0,1,581,615.46Z" transform="translate(-107 -439.75)"/></g><g id="s"><path class="cls-3" d="M620.1,612.6a56,56,0,0,1-18.5-13.26L613.46,587a6.18,6.18,0,0,1,8.26-.58q9.6,7.45,19.95,7.45,5.94,0,8.87-2a6.35,6.35,0,0,0,2.93-5.52,6.76,6.76,0,0,0-1.29-4.12,13.35,13.35,0,0,0-5-3.49,78.78,78.78,0,0,0-10.71-3.84,56.27,56.27,0,0,1-20.14-10.36Q608,557.66,608,544.4a29.8,29.8,0,0,1,3.52-14.32,25.9,25.9,0,0,1,11.07-10.57q7.53-4,19-4a51.85,51.85,0,0,1,19.87,3.63,54.7,54.7,0,0,1,16.16,10.34l-14.17,17.31a33.45,33.45,0,0,0-9.46-6,28.31,28.31,0,0,0-11.35-2.48q-4.6,0-7,1.89a6.07,6.07,0,0,0-2.44,5.09,4.34,4.34,0,0,0,1.5,3.28,14,14,0,0,0,4.15,2.52q2.66,1.11,8.17,3l.87.31c.3.12.67.25,1.08.39a86.71,86.71,0,0,1,16.41,7.47,29.82,29.82,0,0,1,10,9.74A25.78,25.78,0,0,1,679,585.86a28.91,28.91,0,0,1-17.38,27.4,45,45,0,0,1-19.27,3.88A54.53,54.53,0,0,1,620.1,612.6Z" transform="translate(-107 -439.75)"/></g><g id="w"><path class="cls-3" d="M761.26,588.8l14-43a6.23,6.23,0,0,1,5.93-4.31h21.16l-26.27,70a6.22,6.22,0,0,1-5.83,4H752.89l-10.06-26.87-8.15,22.74a6.24,6.24,0,0,1-5.87,4.13H710.23l-25.86-68.69a3.93,3.93,0,0,1,3.68-5.31h19.53l14.24,47.34,11.4-42.71a6.24,6.24,0,0,1,6-4.63h20.42l-7.47,20.88Z" transform="translate(-107 -439.75)"/></g><g id="a"><path class="cls-3" d="M864.79,541.46h17.46v68.71a5.29,5.29,0,0,1-5.3,5.29H864.09l-2.58-6.7q-7.95,8.44-20.38,8.45a35.46,35.46,0,0,1-18.75-5.2,38.3,38.3,0,0,1-13.58-14.1,38.91,38.91,0,0,1-5-19.45,38.52,38.52,0,0,1,5-19.33,38,38,0,0,1,13.62-14,35.65,35.65,0,0,1,18.71-5.16,27.09,27.09,0,0,1,20.66,8.72ZM851.7,593.09a15.62,15.62,0,0,0,5.9-5.9,16.82,16.82,0,0,0,2.17-8.52,17.39,17.39,0,0,0-2.13-8.58,15.55,15.55,0,0,0-5.87-6,17,17,0,0,0-16.58,0,15.67,15.67,0,0,0-5.83,6,17.39,17.39,0,0,0-2.13,8.58,17.19,17.19,0,0,0,2.1,8.52,15.2,15.2,0,0,0,5.76,5.9,16.15,16.15,0,0,0,8.27,2.13A16.53,16.53,0,0,0,851.7,593.09Z" transform="translate(-107 -439.75)"/></g><g id="y"><path class="cls-3" d="M930.44,640.25H909.82l10.26-25-27.79-70.12a2.68,2.68,0,0,1,2.49-3.67h21.81l15.15,46.36,13.77-42.14a6.13,6.13,0,0,1,5.82-4.22H973L936.57,636A6.57,6.57,0,0,1,930.44,640.25Z" transform="translate(-107 -439.75)"/></g></svg>