<svg xmlns="http://www.w3.org/2000/svg" viewBox="0 0 866 200.49"><defs><style>.cls-1{fill:#475100;}.cls-2{fill:#897215;}.cls-3{fill:#c97b14;}.cls-4{fill:#d8932e;}.cls-5{fill:#e8840c;}</style></defs><title>Sheetsway Logo</title><g id="y"><path class="cls-1" d="M74.26,154.5a8.42,8.42,0,0,1,11.38-.66q17.55,14.31,36.55,14.31,10.41,0,15.55-3.55a11.16,11.16,0,0,0,5.14-9.67,11.81,11.81,0,0,0-2.27-7.22q-2.27-3-8.69-6.12a138.25,138.25,0,0,0-18.78-6.73q-20.69-6.11-35.31-18.17Q65.52,106.54,63.57,88.43H0v30.41a13.83,13.83,0,0,0,13.83,13.83H38.35v18.79a25.44,25.44,0,0,0,16.08,23.66Z"/><path class="cls-2" d="M182.91,88.48v0H109.59l.31.3a24.59,24.59,0,0,0,7.28,4.4q4.65,2,14.32,5.27c.48.16,1,.34,1.52.55s1.17.43,1.9.67q17.39,6.12,28.76,13.09a52.31,52.31,0,0,1,17.62,17.08c.58.93,1.11,1.89,1.61,2.88h0Z"/><path class="cls-2" d="M63.21,81.39A52.17,52.17,0,0,1,69.39,56.3a41.93,41.93,0,0,1,9.8-12.06H0V88.43H63.57A66.58,66.58,0,0,1,63.21,81.39Z"/><path class="cls-3" d="M143.79,75.08a49.53,49.53,0,0,0-19.88-4.34q-8.09,0-12.36,3.3A10.71,10.71,0,0,0,107.26,83a7.52,7.52,0,0,0,2.33,5.45h73.32V63.8a19.63,19.63,0,0,0-.64-5L160.38,85.55A58.76,58.76,0,0,0,143.79,75.08Z"/><path class="cls-3" d="M62.57,0H25.44A25.44,25.44,0,0,0,0,25.44v18.8H62.57Z"/><path class="cls-4" d="M88.79,37.76q13.21-7,33.28-7a100.27,100.27,0,0,1,21.34,2.19V25.44A25.44,25.44,0,0,0,118,0H62.57V44.24H79.19A52.69,52.69,0,0,1,88.79,37.76Z"/><path class="cls-1" d="M262.28,104a26.25,26.25,0,0,1,10.33,11.14,37.68,37.68,0,0,1,3.7,17.21v36.48a6.88,6.88,0,0,1-6.87,6.87H252.71V136.62q0-7.05-3.49-11a11.78,11.78,0,0,0-9.28-3.94,15.36,15.36,0,0,0-7.58,1.92,14.6,14.6,0,0,0-5.44,5.13,12.63,12.63,0,0,0-2,6.77v33.34a6.88,6.88,0,0,1-6.88,6.87H201.47V77.87A6.88,6.88,0,0,1,208.34,71h16.59v37.63a35.12,35.12,0,0,1,10.5-6.14A32.35,32.35,0,0,1,247,100.17,30,30,0,0,1,262.28,104Z"/><path class="cls-1" d="M390.52,146.32a16.58,16.58,0,0,0,6.52,8.62,18.65,18.65,0,0,0,10.58,3,21.34,21.34,0,0,0,8.06-1.43,23.89,23.89,0,0,0,6.6-4.09L433,168a37.73,37.73,0,0,1-12,7.23,42.18,42.18,0,0,1-14.9,2.54,38.53,38.53,0,0,1-20-5.23,37.51,37.51,0,0,1-13.86-14.1,38.61,38.61,0,0,1-5-19.27A41,41,0,0,1,372,119.58a36.51,36.51,0,0,1,13.16-14.17,35.24,35.24,0,0,1,19-5.24q11.66,0,20,4.86a31.59,31.59,0,0,1,12.7,13.5,43.91,43.91,0,0,1,4.33,19.9,51.31,51.31,0,0,1-.63,7.89Zm5.83-25.41A18.28,18.28,0,0,0,390.1,131h26.21a4.89,4.89,0,0,0,3.86-7.91,14.77,14.77,0,0,0-2.22-2.25,16.34,16.34,0,0,0-10.64-3.46A17.29,17.29,0,0,0,396.35,120.91Z"/><path class="cls-1" d="M309.26,146.32a16.55,16.55,0,0,0,6.53,8.62,18.6,18.6,0,0,0,10.57,3,21.39,21.39,0,0,0,8.07-1.43,23.84,23.84,0,0,0,6.59-4.09L351.77,168a37.73,37.73,0,0,1-12,7.23,42.14,42.14,0,0,1-14.9,2.54,38.53,38.53,0,0,1-20-5.23A37.51,37.51,0,0,1,291,158.4a38.72,38.72,0,0,1-5-19.27,41,41,0,0,1,4.75-19.55,36.51,36.51,0,0,1,13.16-14.17,35.27,35.27,0,0,1,19-5.24q11.65,0,20,4.86a31.59,31.59,0,0,1,12.7,13.5,43.91,43.91,0,0,1,4.33,19.9,51.31,51.31,0,0,1-.63,7.89Zm5.84-25.41A18.24,18.24,0,0,0,308.84,131h26.21a4.89,4.89,0,0,0,3.86-7.91,14.77,14.77,0,0,0-2.22-2.25,16.32,16.32,0,0,0-10.64-3.46A17.26,17.26,0,0,0,315.1,120.91Z"/><path class="cls-1" d="M474,175.71H454.81V123.28h-8.93V101.71h8.86V88.46a5,5,0,0,1,3.81-4.86l19.93-4.93v23h14.31v21.57H478.41v48A4.39,4.39,0,0,1,474,175.71Z"/><path class="cls-5" d="M513.1,172.85a56.19,56.19,0,0,1-18.5-13.27l11.86-12.32a6.18,6.18,0,0,1,8.26-.57q9.6,7.44,19.95,7.45,5.94,0,8.87-2a6.34,6.34,0,0,0,2.93-5.51,6.74,6.74,0,0,0-1.29-4.12,13.23,13.23,0,0,0-5-3.49,78.78,78.78,0,0,0-10.71-3.84,56.29,56.29,0,0,1-20.14-10.37Q501,117.91,501,104.64a29.79,29.79,0,0,1,3.52-14.31,26,26,0,0,1,11.07-10.58q7.53-4,19-4a51.85,51.85,0,0,1,19.87,3.63A54.66,54.66,0,0,1,570.63,89.7L556.46,107a33.45,33.45,0,0,0-9.46-6,28.31,28.31,0,0,0-11.35-2.48q-4.6,0-7,1.88a6.1,6.1,0,0,0-2.44,5.1,4.34,4.34,0,0,0,1.5,3.28,14,14,0,0,0,4.15,2.51q2.66,1.13,8.17,3c.28.09.57.19.87.31s.67.24,1.08.38a87.34,87.34,0,0,1,16.41,7.47,29.91,29.91,0,0,1,10,9.74A25.79,25.79,0,0,1,572,146.11a28.91,28.91,0,0,1-17.38,27.4,45.19,45.19,0,0,1-19.27,3.88A54.69,54.69,0,0,1,513.1,172.85Z"/><path class="cls-5" d="M654.26,149l14-43a6.24,6.24,0,0,1,5.93-4.3h21.16l-26.27,70a6.22,6.22,0,0,1-5.83,4H645.89l-10.06-26.88-8.15,22.75a6.24,6.24,0,0,1-5.87,4.13H603.23L577.37,107a3.93,3.93,0,0,1,3.68-5.31h19.53L614.82,149l11.4-42.7a6.24,6.24,0,0,1,6-4.63h20.42l-7.47,20.87Z"/><path class="cls-5" d="M757.79,101.71h17.46v68.71a5.29,5.29,0,0,1-5.3,5.29H757.09l-2.58-6.7q-7.95,8.44-20.38,8.45a35.38,35.38,0,0,1-18.75-5.21,38.14,38.14,0,0,1-13.58-14.1,40,40,0,0,1,0-38.78,38,38,0,0,1,13.62-14,35.66,35.66,0,0,1,18.71-5.17,27.07,27.07,0,0,1,20.66,8.73ZM744.7,153.34a15.62,15.62,0,0,0,5.9-5.9,16.84,16.84,0,0,0,2.17-8.52,17.43,17.43,0,0,0-2.13-8.59,15.46,15.46,0,0,0-5.87-6,16.92,16.92,0,0,0-16.58,0,15.57,15.57,0,0,0-5.83,6,17.43,17.43,0,0,0-2.13,8.59,17.22,17.22,0,0,0,2.1,8.52,15.2,15.2,0,0,0,5.76,5.9,16.14,16.14,0,0,0,8.27,2.12A16.53,16.53,0,0,0,744.7,153.34Z"/><path class="cls-5" d="M823.44,200.49H802.82l10.26-25-27.79-70.12a2.68,2.68,0,0,1,2.49-3.67h21.81l15.15,46.35,13.77-42.13a6.12,6.12,0,0,1,5.82-4.22H866l-36.43,94.57A6.55,6.55,0,0,1,823.44,200.49Z"/></g></svg>