<svg xmlns="http://www.w3.org/2000/svg" viewBox="0 0 135.67 161.37"><defs><style>.cls-1{fill:#ffce33;}.cls-2,.cls-4{fill:#f5f5ff;}.cls-2,.cls-3,.cls-4,.cls-6{stroke:#2e2e2e;stroke-linecap:round;stroke-linejoin:round;}.cls-2,.cls-3{stroke-width:0.54px;}.cls-3,.cls-6{fill:none;}.cls-4{stroke-width:0.56px;}.cls-5{fill:#2e2e2e;}.cls-6{stroke-width:0.5px;}</style></defs><title>avatar1</title><g id="OBJECTS"><circle class="cls-1" cx="67.72" cy="60.82" r="60.62" transform="translate(-7.43 112.16) rotate(-76.27)"/><path class="cls-2" d="M84.47,46.94c-2.47,4-2.23,8.68.53,10.51s7,.1,9.5-3.87S96.73,44.9,94,43.07,86.94,43,84.47,46.94Z"/><path class="cls-3" d="M91.88,45a3.69,3.69,0,0,1,1,6.31"/><path class="cls-2" d="M51.08,46.94c2.47,4,2.23,8.68-.54,10.51s-7,.1-9.49-3.87-2.23-8.68.54-10.51S48.6,43,51.08,46.94Z"/><path class="cls-3" d="M43.67,45a3.69,3.69,0,0,0-1,6.31"/><path class="cls-4" d="M79.65,92.93a11.88,11.88,0,1,1-23.76.4,2.68,2.68,0,0,1,0-.4l1.31-17.71.34-4.48.66-8.8h19.1l1.05,13.91L79.12,86Z"/><path class="cls-5" d="M79.12,86c-6.27.45-13.18-2.67-17.92-8.73a23.94,23.94,0,0,1-3.64-6.49l.66-8.8h19.1l1.05,13.91Z"/><path class="cls-5" d="M45.11,31c5-10.45,15.18-13.72,24.34-13.2,7.46.43,15.51,3.33,20,11.52,1.76,3.19.81,12.29.56,21.54C89.69,64.13,81,74.75,68.81,75h0c-11.54.28-20.36-8.79-22.21-21.14C45.2,44.55,43.26,34.91,45.11,31Z"/><path class="cls-5" d="M48.93,28a3.13,3.13,0,0,1,5.39,2.89c-.71,2.48-2.44,4.91-3.6,6.7a25.93,25.93,0,0,0-4.1,11.39A22.76,22.76,0,0,1,47.86,29.5,9.43,9.43,0,0,1,48.93,28Z"/><path class="cls-5" d="M86.93,28a3.13,3.13,0,0,0-5.39,2.89c.71,2.48,2.44,4.91,3.6,6.7a25.79,25.79,0,0,1,4.09,11.39A22.72,22.72,0,0,0,88,29.5,10.09,10.09,0,0,0,86.93,28Z"/><path class="cls-5" d="M86.6,13.82a7.11,7.11,0,0,1-2.92,3.73c.39-2.2.69-5.53-.36-7.58a12,12,0,0,1-4.87,4.18,24.13,24.13,0,0,1-6.52,1.48,32.33,32.33,0,0,0,2-4.13,30.87,30.87,0,0,1-6.24,3.69,7.38,7.38,0,0,1-2.66.76,13.07,13.07,0,0,1-3-.46,14.39,14.39,0,0,0-12.11,3.65A19.65,19.65,0,0,0,44,30.56,4.8,4.8,0,0,1,47.41,28c.19,2.68,3.58,3.23,5.68,3.25s4.61-1.14,6.42.19a20.71,20.71,0,0,0,10.66,4.3c6.31.41,13.12-2.8,16.08-8.51A15.78,15.78,0,0,0,86.6,13.82Z"/><path class="cls-6" d="M76.19,34.8a11.76,11.76,0,0,1-18.1-6.88,8.11,8.11,0,0,0,1.48,5.92,9.92,9.92,0,0,0,5.58,3.82"/><path class="cls-6" d="M67.4,16.14c3,.09,6.07.16,8.88-.87s5.35-3.41,5.62-6.39"/><path class="cls-6" d="M57.16,16A15.31,15.31,0,0,0,70.5,13c1.42-1.17,2.7-2.91,2.31-4.7"/><path class="cls-2" d="M88.23,58.72a30.71,30.71,0,0,1-3.12,5.83A35.48,35.48,0,0,1,76,74a14.46,14.46,0,0,1-12.47,1.81c-3.24-1.11-5.92-3.43-8.31-5.89A31.67,31.67,0,0,1,48,59.43a31.57,31.57,0,0,1-1.83-10.1,111,111,0,0,1,.75-14.46A21.7,21.7,0,0,1,57.3,18.55a21.09,21.09,0,0,1,31.16,13c1.14,4.5.75,9.18.82,13.76,0,1.29.07,2.59.1,3.89A24.09,24.09,0,0,1,88.23,58.72Z"/><path class="cls-5" d="M89.46,49.21v.16l-.12-.1a7.33,7.33,0,0,1-2.49-5.13l-.78-14.82c-.78-.31-1.53-.63-2.29-1-1.14-.55-2.24-1.14-3.27-1.77a26.85,26.85,0,0,1-5.66-4.44,30.29,30.29,0,0,1-7,.78,28.88,28.88,0,0,1-8-1.06,25.59,25.59,0,0,1-5.29,4.36,34.79,34.79,0,0,1-3.87,2.13l-1,.46-.79,15.34a7.26,7.26,0,0,1-2.64,5.24l-.12.1v-.15a105.25,105.25,0,0,1,.67-13.49l.09-1A21.23,21.23,0,0,1,76.17,17.2,21.55,21.55,0,0,1,88.53,31.55a41.4,41.4,0,0,1,.82,10.58c0,1,0,2.14,0,3.2,0,.74,0,1.5.07,2.23C89.43,48.11,89.45,48.66,89.46,49.21Z"/><path class="cls-5" d="M83,24.17a1.84,1.84,0,0,0-.14-2.44,20.92,20.92,0,0,0-6.72-4.53,21.57,21.57,0,0,0-18.9,1.28A21,21,0,0,0,52.84,22a1.8,1.8,0,0,0-.14,2.4l.19.21c.21.25-5.65,5.42-5,7.53.33,1.14,7.31-.86,8.5-1.16a14,14,0,0,1,5.95.23c.33.08,7.84.23,11.5,0,4.27-.26,4.77-.93,5.1-.93,1.48,0,7.37-.07,7.73-1.53.14-.55-4.34-1.88-4.49-2.42a1.78,1.78,0,0,1,.43-1.64C82.73,24.54,82.88,24.35,83,24.17Z"/><path class="cls-5" d="M113.91,138.8c-9.11,4.11-17.44,5.38-18.59,2.83s5.31-7.95,14.43-12.07,17.44-5.38,18.59-2.83S123,134.68,113.91,138.8Z"/><path class="cls-2" d="M109.91,161.19l-4.27-10.37-3.42-8.3-2.88-7L93,120.13c-3.33-8.09-.05-17.06,7.13-19.52A11.52,11.52,0,0,1,104,100h.35c5.57.2,11,4.34,13.12,10.66l5.12,15,2.29,6.72,9.91,29"/><path class="cls-2" d="M128.14,126.42c-1.68-2.13-9.67-.79-18.39,3.14-9.12,4.12-15.58,9.52-14.42,12.07a1.29,1.29,0,0,0,.09.16l-.09,0L85.26,118.22c-4-9.28.31-19.85,9.29-23a15.44,15.44,0,0,1,5.16-.89,17.16,17.16,0,0,1,15.07,9.57Z"/><path class="cls-5" d="M21.76,139c9.11,4.11,17.44,5.38,18.59,2.83S35,133.84,25.92,129.72s-17.44-5.38-18.59-2.83S12.64,134.84,21.76,139Z"/><path class="cls-2" d="M.69,161.37l10.13-28.93,2.34-6.71,5.23-14.94c2.25-6.43,7.84-10.57,13.54-10.57H32a11.85,11.85,0,0,1,3.74.64c7.16,2.52,10.39,11.51,7,19.57l-6.44,15.34h0l-2.93,7-3.12,7.44-4.7,11.18"/><path class="cls-2" d="M7.53,126.58c1.68-2.13,9.67-.79,18.39,3.14,9.12,4.11,15.58,9.52,14.42,12.07a.46.46,0,0,1-.09.15l.09.05,10.08-23.62c3.95-9.27-.32-19.84-9.3-23A15.44,15.44,0,0,0,36,94.51a17.17,17.17,0,0,0-15.07,9.56Z"/><polygon class="cls-2" points="105.88 161.37 29.57 161.37 29.97 150.19 30.25 142.12 30.6 132.22 31.73 100.22 31.91 94.86 48.67 89.4 51.43 88.41 52.8 87.91 56.38 85.98 57.46 85.98 78.11 85.98 78.54 85.98 82.55 87.83 83.91 88.32 86.67 89.32 103.69 94.86 103.82 100.23 104.43 118.25 104.89 132.02 105.22 141.98 105.22 142.04 105.52 151.04 105.88 161.37"/><path class="cls-2" d="M79.23,85.51,82,87.6l1.31.47a15.78,15.78,0,0,1-31.3.08l1.33-.48,3.16-2.55"/></g></svg>