<svg id="BACKGROUND" xmlns="http://www.w3.org/2000/svg" viewBox="0 0 135.31 160.74"><defs><style>.cls-1{fill:#3b4eff;}.cls-2{fill:#2e2e2e;}.cls-3,.cls-5,.cls-6{fill:#f5f5ff;}.cls-3,.cls-4,.cls-5{stroke:#2e2e2e;stroke-linecap:round;stroke-linejoin:round;}.cls-3,.cls-4{stroke-width:0.54px;}.cls-4{fill:none;}.cls-5{stroke-width:0.56px;}</style></defs><title>avatars 2</title><circle class="cls-1" cx="67.03" cy="60.74" r="60.62" transform="translate(-7.49 112.03) rotate(-76.72)"/><path class="cls-2" d="M76.93,69.5H57.29C51.51,69.5,46.6,63,45.72,54.3l-1.8-18C42.84,25.49,48.32,15.7,55.49,15.7H78.88c7.23,0,12.74,10,11.55,20.87l-2,18C87.53,63.17,82.65,69.5,76.93,69.5Z"/><path class="cls-3" d="M83.88,46.31c-2.47,4-2.23,8.68.54,10.51s7,.1,9.49-3.87,2.23-8.68-.54-10.51S86.36,42.34,83.88,46.31Z"/><path class="cls-4" d="M91.29,44.35a3.68,3.68,0,0,1,1,6.31"/><path class="cls-3" d="M50.49,46.31C53,50.29,52.73,55,50,56.82s-7,.1-9.49-3.87-2.24-8.68.53-10.51S48,42.34,50.49,46.31Z"/><path class="cls-4" d="M43.08,44.35a3.69,3.69,0,0,0-1,6.31"/><path class="cls-5" d="M79.06,92.3a11.88,11.88,0,1,1-23.75.4c0-.13,0-.27,0-.4l1.32-17.71L57,70.11l.66-8.8h19.1l1.06,13.91.74,10.11Z"/><path class="cls-2" d="M78.53,85.33c-6.27.45-13.17-2.67-17.91-8.73A23.72,23.72,0,0,1,57,70.11l.66-8.8h19.1l1.06,13.91Z"/><path class="cls-3" d="M87.64,58.09a31.22,31.22,0,0,1-3.11,5.83,35.79,35.79,0,0,1-9.09,9.43A14.48,14.48,0,0,1,63,75.16c-3.24-1.11-5.91-3.43-8.31-5.89A31.67,31.67,0,0,1,47.42,58.8a31.84,31.84,0,0,1-1.83-10.1,111,111,0,0,1,.76-14.46A21.64,21.64,0,0,1,56.72,17.92a21.09,21.09,0,0,1,31.15,13c1.14,4.5.75,9.18.82,13.76,0,1.29.08,2.59.11,3.89A24.28,24.28,0,0,1,87.64,58.09Z"/><path class="cls-2" d="M88.88,48.79V49l-.11-.11a7.32,7.32,0,0,1-2.5-5.13L85.49,28.9c-.78-.32-1.53-.64-2.29-1a36.13,36.13,0,0,1-3.26-1.76,26.07,26.07,0,0,1-5.66-4.45,29.89,29.89,0,0,1-7,.79,29.13,29.13,0,0,1-8-1.06A25.37,25.37,0,0,1,54,25.78a33.09,33.09,0,0,1-3.86,2.13l-1,.46L48.3,43.71A7.32,7.32,0,0,1,45.66,49l-.12.09V48.9a107.32,107.32,0,0,1,.66-13.49l.1-1a21.4,21.4,0,0,1,4.94-11.71,21.13,21.13,0,0,1,5.47-4.67,21.55,21.55,0,0,1,18.89-1.29,21,21,0,0,1,7.75,5.64A21.21,21.21,0,0,1,88,31.12a41.44,41.44,0,0,1,.83,10.58c0,1,0,2.14,0,3.2,0,.74,0,1.5.06,2.24C88.85,47.68,88.87,48.23,88.88,48.79Z"/><path class="cls-2" d="M73.83,18.48a4.21,4.21,0,0,0-5.25-.57c-3,1.84-4.52,4.84-6.41,7.78a74.54,74.54,0,0,1-9.06,11.36c-2,2.06-4.24,4.06-7,5s-6.11.46-8-1.76C40.28,33,42.43,25,47.49,19.31,53.57,12.49,63.78,9,72.67,11.61a4.7,4.7,0,0,1,1.72.81c1.08.9.78,2.28.42,3.46C74.74,16.12,73.75,18.4,73.83,18.48Z"/><path class="cls-2" d="M73.44,15.25c.21,6.64,3.65,13,7.7,17.68,2.1,2.43,4.59,4.34,6.59,6.89a14.06,14.06,0,0,0,1.5,1.62,1.48,1.48,0,0,0,2.51-.95c.87-4.46.28-8.2-1.92-13.35C86.88,20.28,79.6,17.08,73.44,15.25Z"/><path class="cls-2" d="M113.22,137.85c-9.12,4.11-17.44,5.38-18.59,2.83s5.31-8,14.43-12.07,17.44-5.38,18.59-2.83S122.34,133.73,113.22,137.85Z"/><path class="cls-3" d="M109.22,160.24,105,149.87l-3.42-8.3-2.88-7-6.33-15.38c-3.33-8.1-.06-17.06,7.13-19.52a11.75,11.75,0,0,1,3.82-.62l.35,0c5.57.2,11,4.34,13.11,10.65l5.13,15,2.29,6.72,9.91,29"/><path class="cls-2" d="M127.45,125.47c-1.69-2.13-9.67-.79-18.39,3.14-9.12,4.12-15.59,9.52-14.43,12.07a1.4,1.4,0,0,0,.1.16l-.1,0L84.56,117.26c-4-9.27.32-19.84,9.3-23A15.42,15.42,0,0,1,99,93.4,17.19,17.19,0,0,1,114.09,103Z"/><path class="cls-2" d="M21.06,138c9.12,4.12,17.44,5.39,18.59,2.84s-5.3-8-14.42-12.07-17.44-5.38-18.59-2.83S12,133.89,21.06,138Z"/><path class="cls-3" d="M0,160.42l10.12-28.93,2.35-6.71,5.23-14.94c2.24-6.43,7.84-10.57,13.53-10.57h.08a11.79,11.79,0,0,1,3.73.64c7.17,2.52,10.39,11.51,7,19.57L35.6,134.82h0l-2.93,7-3.13,7.44-4.69,11.18"/><path class="cls-2" d="M6.83,125.63c1.69-2.13,9.68-.79,18.39,3.14,9.12,4.11,15.59,9.52,14.43,12.07a.78.78,0,0,1-.1.15l.1,0,10.07-23.62c4-9.27-.32-19.84-9.3-23a15.38,15.38,0,0,0-5.15-.89,17.17,17.17,0,0,0-15.07,9.56Z"/><polygon class="cls-2" points="105.18 160.74 28.88 160.74 29.27 149.56 29.55 141.49 29.91 131.58 31.04 99.59 31.21 94.83 33.67 93.94 47.98 88.77 49.17 88.34 50.74 87.78 52.11 87.27 55.68 85.36 77.84 85.36 81.86 87.2 83.21 87.69 84.95 88.31 85.97 88.69 100.7 94 102.97 94.83 103.13 99.6 103.74 117.62 104.2 131.39 104.53 141.35 104.53 141.4 104.83 150.4 105.18 160.74"/><path class="cls-6" d="M85,88.31a64.31,64.31,0,0,0-17.91,20,64.67,64.67,0,0,0-17.87-20l1.57-.56,1.37-.51,3.57-1.91H77.84l4,1.84,1.35.49Z"/><path class="cls-5" d="M78.53,85.33l3.33,1.87,1.35.49,1.74.62a64.31,64.31,0,0,0-17.91,20,64.67,64.67,0,0,0-17.87-20l1.57-.56,1.37-.51,3.77-2"/></svg>