<svg xmlns="http://www.w3.org/2000/svg" viewBox="0 0 134.28 160.42"><defs><style>.cls-1{fill:#ffce33;}.cls-2{fill:#2e2e2e;}.cls-3,.cls-5{fill:#f5f5ff;}.cls-3,.cls-4,.cls-5{stroke:#2e2e2e;stroke-linecap:round;stroke-linejoin:round;}.cls-3,.cls-4{stroke-width:0.54px;}.cls-4{fill:none;}.cls-5{stroke-width:0.56px;}.cls-6{fill:#515151;}</style></defs><title>avatars</title><g id="OBJECTS"><circle class="cls-1" cx="67.57" cy="60.62" r="60.62"/><path class="cls-2" d="M113.22,138c-9.12,4.11-17.44,5.38-18.59,2.83s5.31-8,14.42-12.06,17.45-5.39,18.6-2.84S122.34,133.89,113.22,138Z"/><path class="cls-3" d="M109.44,160.42l-4.34-10.34-3.48-8.28-2.93-7-6.45-15.33c-3.39-8.07-.18-17.06,7-19.57a11.46,11.46,0,0,1,3.81-.64h.35c5.58.16,11,4.26,13.2,10.56l5.23,14.94,2.34,6.69,10.12,28.95"/><path class="cls-2" d="M127.45,125.62c-1.69-2.12-9.67-.78-18.39,3.14-9.12,4.12-15.59,9.52-14.43,12.08l.1.15-.1,0L84.56,117.42c-4-9.27.32-19.84,9.3-23A15.66,15.66,0,0,1,99,93.56a17.17,17.17,0,0,1,15.08,9.56Z"/><path class="cls-2" d="M21.06,138c9.12,4.11,17.44,5.38,18.59,2.83s-5.3-8-14.42-12.06-17.44-5.39-18.59-2.84S12,133.89,21.06,138Z"/><path class="cls-3" d="M0,160.42l10.12-28.94,2.35-6.7,5.23-14.94c2.24-6.43,7.84-10.57,13.53-10.57h.08a11.52,11.52,0,0,1,3.73.64c7.17,2.51,10.39,11.5,7,19.57L35.6,134.81h0l-2.93,7-3.13,7.44-4.69,11.18"/><path class="cls-2" d="M6.83,125.62c1.69-2.12,9.68-.78,18.39,3.14,9.12,4.12,15.59,9.52,14.43,12.08l-.1.15.1,0,10.07-23.61c4-9.27-.32-19.84-9.3-23a15.62,15.62,0,0,0-5.15-.88,17.15,17.15,0,0,0-15.07,9.56Z"/><path class="cls-3" d="M83.27,46.47c-2.47,4-2.23,8.67.53,10.51s7,.1,9.5-3.88,2.23-8.68-.54-10.51S85.74,42.49,83.27,46.47Z"/><path class="cls-4" d="M90.68,44.5a3.69,3.69,0,0,1,1,6.31"/><path class="cls-3" d="M49.88,46.47c2.47,4,2.23,8.67-.54,10.51s-7,.1-9.49-3.88-2.23-8.68.54-10.51S47.4,42.49,49.88,46.47Z"/><path class="cls-4" d="M42.47,44.5a3.69,3.69,0,0,0-1,6.31"/><path class="cls-5" d="M78.85,91a11.88,11.88,0,1,1-23.75.4c0-.13,0-.27,0-.4l1.32-17.71.33-4.48.66-8.8h19.1l1,13.91L78.32,84Z"/><path class="cls-6" d="M78.32,84c-6.27.45-13.18-2.67-17.91-8.73a23.72,23.72,0,0,1-3.65-6.49l.66-8.8h19.1l1,13.91Z"/><path class="cls-3" d="M87.49,57.39a29.34,29.34,0,0,1-3.11,5.84,35.56,35.56,0,0,1-9.08,9.42,14.42,14.42,0,0,1-12.48,1.81c-3.24-1.1-5.92-3.43-8.3-5.88A31.52,31.52,0,0,1,47.27,58.1,32.4,32.4,0,0,1,45.44,48c-.06-1.85,0-3.72.06-5.58.15-3.06.44-6.09.7-8.89A21.69,21.69,0,0,1,56.57,17.22a21.11,21.11,0,0,1,31.16,13c1.07,4.25.79,8.65.8,13,0,.27,0,.53,0,.79,0,1.3.09,2.59.11,3.9A23.69,23.69,0,0,1,87.49,57.39Z"/><path class="cls-2" d="M66,34.86a10.24,10.24,0,0,0,5.35-1.06,5.93,5.93,0,0,0,3.1-4.28A9.51,9.51,0,0,0,88.31,33c2.75-1.91,4.33-5.62,3.14-8.73-1.32-3.43-5.27-5-8.89-5.82a46.46,46.46,0,0,0-21.46.47c-2.15.56-8.15,1.66-9,4s2.58,6.23,4.15,7.69A15.44,15.44,0,0,0,66,34.86Z"/><line class="cls-4" x1="67.41" y1="69.68" x2="67.41" y2="72.99"/><path class="cls-2" d="M88.53,43.2a3.81,3.81,0,0,1-1.41-1.05,7.54,7.54,0,0,1-1.35-2.59A27.09,27.09,0,0,1,85,26.32,13.2,13.2,0,0,1,73.31,19a31.61,31.61,0,0,1-18.75,4.74,26.31,26.31,0,0,1-9.06,18.7,24,24,0,0,1-1.23-10.14c.61-6.63,2.26-13.45,8-16.83s18.92-3.63,24.94-1.11,9.88,9.45,11.47,15.78C89.75,34.37,88.52,38.88,88.53,43.2Z"/><polygon class="cls-2" points="105.45 160.42 29.15 160.42 29.54 149.24 29.82 141.17 30.17 131.26 31.31 99.27 31.48 94.5 33.94 93.62 48.25 88.45 51.01 87.45 52.38 86.95 55.95 85.67 57.03 85.27 77.68 85.27 78.11 85.43 82.12 86.88 83.48 87.37 86.24 88.36 100.97 93.68 103.23 94.5 103.39 99.28 104 117.3 104.46 131.07 104.8 141.03 104.8 141.08 105.09 150.08 105.45 160.42"/></g></svg>