<svg xmlns="http://www.w3.org/2000/svg" viewBox="0 0 134.58 161.5"><defs><style>.cls-1{fill:#3b4eff;}.cls-2{fill:#2e2e2e;}.cls-3,.cls-5,.cls-6,.cls-7{fill:#f5f5ff;}.cls-3,.cls-4,.cls-5,.cls-6,.cls-7,.cls-8{stroke:#2e2e2e;stroke-linecap:round;stroke-linejoin:round;}.cls-3,.cls-4{stroke-width:0.5px;}.cls-4,.cls-8{fill:none;}.cls-5{stroke-width:0.56px;}.cls-6{stroke-width:0.54px;}.cls-7{stroke-width:0.52px;}.cls-8{stroke-width:0.46px;}</style></defs><title>avatars</title><g id="OBJECTS"><circle class="cls-1" cx="67.38" cy="60.8" r="60.62" transform="translate(-23.26 65.46) rotate(-45)"/><path class="cls-2" d="M76.48,58.25H57.55c-5.58,0-10.32-4.8-11.16-11.3L44.65,33.59c-1-8.07,2.07-21.92,9-21.92L73.8,15.29c10.39,3,16.85,10.35,15.71,18.47L87.62,47.12C86.71,53.54,82,58.25,76.48,58.25Z"/><path class="cls-3" d="M82.37,46.22c-2.32,3.72-2.09,8.13.5,9.84s6.57.09,8.88-3.63,2.09-8.12-.5-9.83S84.68,42.51,82.37,46.22Z"/><path class="cls-4" d="M89.3,44.38a3.45,3.45,0,0,1,.9,5.91"/><path class="cls-3" d="M51.12,46.22c2.32,3.72,2.09,8.13-.5,9.84s-6.56.09-8.88-3.63-2.09-8.12.5-9.83S48.81,42.51,51.12,46.22Z"/><path class="cls-4" d="M44.19,44.38A3.56,3.56,0,0,0,42,47.08a3.52,3.52,0,0,0,1.26,3.21"/><path class="cls-5" d="M79.62,91.1a11.88,11.88,0,1,1-23.75.4c0-.13,0-.26,0-.4L57.2,73.4l.33-4.49.66-8.79H77.3l1,13.9.75,10.12Z"/><path class="cls-2" d="M79.1,84.14c-6.27.44-13.18-2.67-17.92-8.73a23.91,23.91,0,0,1-3.65-6.5l.66-8.79H77.3l1,13.9Z"/><path class="cls-3" d="M88.25,52.23a18.86,18.86,0,0,1-5.82,13.63L76.75,71a9.1,9.1,0,0,1-6.71,3H64.75A9.13,9.13,0,0,1,58.09,71l-5.8-5.15a18.82,18.82,0,0,1-5.94-13.73l.09-1.57.52-9,.39-6.68a20,20,0,1,1,39.9,0l.44,7.6.43,7.5Z"/><path class="cls-2" d="M87.69,42.48h-.62a32.71,32.71,0,0,1-5.42-14.43c-.39-3.21-5-4.29-8.18-3.94a8.44,8.44,0,0,1-6.64,3.7c-2.64.08-5.22-1.68-6.8-3.79-3.22-.35-7.8.73-8.19,3.94A32.57,32.57,0,0,1,47,41.56l.39-6.68a20,20,0,1,1,39.9,0Z"/><path class="cls-2" d="M113.37,138.11c-9.12,4.12-17.44,5.39-18.59,2.84s5.3-8,14.42-12.07,17.44-5.38,18.59-2.83S122.49,134,113.37,138.11Z"/><path class="cls-6" d="M109.36,160.51l-4.27-10.37-3.41-8.31-2.88-7-6.33-15.38c-3.33-8.09-.06-17,7.13-19.51a11.43,11.43,0,0,1,3.81-.62h.35c5.58.21,11,4.34,13.12,10.66L122,125l2.3,6.71,9.91,29"/><path class="cls-3" d="M127.59,125.74c-1.68-2.13-9.67-.79-18.38,3.13C100.08,133,93.62,138.4,94.79,141a.46.46,0,0,0,.09.15l-.09.05-4.08-9.55c1.82-2.91,7.39-6.9,14.54-10.12s14-4.82,17.33-4.19Z"/><path class="cls-2" d="M122.58,117.29c-3.34-.63-10.1.93-17.33,4.19s-12.72,7.21-14.54,10.12l-6-14.07c-3.95-9.26.32-19.84,9.29-23a15.52,15.52,0,0,1,5.16-.89,17.19,17.19,0,0,1,15.08,9.56Z"/><path class="cls-2" d="M21.4,138.11C30.52,142.23,38.84,143.5,40,141s-5.31-8-14.42-12.07S8.13,123.5,7,126.05,12.28,134,21.4,138.11Z"/><path class="cls-6" d="M25.41,160.51l4.26-10.37,3.42-8.31,2.88-7,6.33-15.38c3.33-8.09.06-17-7.13-19.51a11.43,11.43,0,0,0-3.81-.62H31c-5.57.21-10.95,4.34-13.11,10.66l-5.12,15-2.3,6.71-9.91,29"/><path class="cls-3" d="M7.18,125.74c1.68-2.13,9.67-.79,18.38,3.13C34.69,133,41.15,138.4,40,141a.46.46,0,0,1-.09.15l.09.05,4.08-9.55c-1.82-2.91-7.39-6.9-14.54-10.12s-14-4.82-17.34-4.19Z"/><path class="cls-2" d="M12.18,117.29c3.35-.63,10.11.93,17.34,4.19s12.72,7.21,14.54,10.12l6-14.07c3.95-9.26-.32-19.84-9.3-23a15.42,15.42,0,0,0-5.15-.89,17.18,17.18,0,0,0-15.08,9.56Z"/><polygon class="cls-6" points="105.59 161.01 29.29 161.01 29.69 149.83 29.97 141.76 30.32 131.85 31.45 99.86 31.63 95.1 34.09 94.21 48.39 89.04 51.15 88.05 52.52 87.54 56.1 85.62 57.18 85.62 77.83 85.62 78.26 85.62 82.27 87.47 83.63 87.96 86.39 88.95 101.11 94.27 103.38 95.1 103.54 99.87 104.15 117.89 104.61 131.66 104.94 141.62 104.94 141.67 105.24 150.67 105.59 161.01"/><path class="cls-7" d="M79,85.17l3,2.06,1.3.47A15.78,15.78,0,0,1,52,87.79l1.32-.48,3.14-2.41"/><line class="cls-8" x1="41.95" y1="91.44" x2="41.95" y2="160.68"/><line class="cls-8" x1="55.23" y1="95.6" x2="55.23" y2="160.68"/><line class="cls-8" x1="67.56" y1="101.59" x2="67.56" y2="160.68"/><line class="cls-8" x1="80.83" y1="94.45" x2="80.83" y2="160.68"/><line class="cls-8" x1="93.16" y1="91.44" x2="93.16" y2="160.68"/></g></svg>